<svg xmlns="http://www.w3.org/2000/svg" version="1.1" xmlns:xlink="http://www.w3.org/1999/xlink" xmlns:svgjs="http://svgjs.dev/svgjs" width="2000" height="2000" viewBox="0 0 2000 2100"><rect rx="50%" ry="50%" width="2000" height="2000" fill="#ffffff"></rect><g transform="matrix(0.37509377344336087,0,0,0.37509377344336087,623.6736306326025,248.38709677419342)"><svg viewBox="0 0 186 248" data-background-color="#ffffff" preserveAspectRatio="xMidYMid meet" height="2666" width="2000" xmlns="http://www.w3.org/2000/svg" xmlns:xlink="http://www.w3.org/1999/xlink"><g id="tight-bounds" transform="matrix(1,0,0,1,0.3056073682137992,0.4000000000000057)"><svg viewBox="0 0 185.3887852635724 247.2" height="247.2" width="185.3887852635724"><g><svg viewBox="0 0 320.41956521739127 427.25193117333015" height="247.2" width="185.3887852635724"><g transform="matrix(1,0,0,1,0,180.05193117333016)"><svg viewBox="0 0 320.41956521739127 247.2" height="247.2" width="320.41956521739127"><g id="textblocktransform"><svg viewBox="0 0 320.41956521739127 247.2" height="247.2" width="320.41956521739127" id="textblock"><g><svg viewBox="0 0 320.41956521739127 247.2" height="247.2" width="320.41956521739127"><g transform="matrix(1,0,0,1,0,0)"><svg width="320.41956521739127" viewBox="-2.1 -31.2 47.7 36.8" height="247.2" data-palette-color="#111111"><path d="M28.6-13.5L28.6-13.5Q26.1-13.5 23.95-13.9L23.95-13.9Q24.65-11.7 26.9-3.95L26.9-3.95Q27.6-1.7 29.1 0.6L29.1 0.6Q31.15 3.55 32.9 3.55L32.9 3.55Q35 3.55 36.4-0.7L36.4-0.7Q36.65-1.7 36.93-1.7 37.2-1.7 37.33-1.13 37.45-0.55 37.45-0.35L37.45-0.35Q37.45 0.9 36.05 2.85L36.05 2.85Q34.2 5.6 32 5.6 29.8 5.6 27.95 3.4 26.1 1.2 24.33-4.63 22.55-10.45 22.55-12.05L22.55-12.05Q22.55-12.3 22.6-12.45L22.6-12.45Q16.6-4.5 14-1.95L14-1.95Q8.2 3.7 2.15 3.7L2.15 3.7Q-2.1 3.7-2.1 0.5L-2.1 0.5Q-2.1-1.1-1.1-3.03-0.1-4.95 1.35-6.4 2.8-7.85 3.9-7.85L3.9-7.85Q4.1-7.85 4.1-7.75L4.1-7.75Q4.1-7.5 2.85-6.5 1.6-5.5 0.45-3.68-0.7-1.85-0.7-0.35L-0.7-0.35Q-0.7 2.3 2.85 2.3L2.85 2.3Q9.5 2.3 21.15-13.3L21.15-13.3Q21.8-14.15 22.25-14.5L22.25-14.5 21.45-14.8Q20.8-14.55 20.4-14.55L20.4-14.55Q19.35-14.55 19.35-15.4L19.35-15.4Q19.35-16.55 20.9-16.9L20.9-16.9Q21.1-16.95 21.25-16.95L21.25-16.95Q22.15-16.95 23.35-16.05L23.35-16.05Q27.75-20.95 27.85-21.05L27.85-21.05Q31.5-24.8 32.77-24.8 34.05-24.8 34.05-23.7L34.05-23.7Q34.05-23.2 33.83-22.75 33.6-22.3 33.3-22.3L33.3-22.3Q33-22.2 33-22.6L33-22.6Q33-22.8 33.3-23.2L33.3-23.2Q33.35-23.9 32.85-23.9L32.85-23.9Q31.25-23.9 25.1-15.4L25.1-15.4Q26.6-15.3 27.6-15.3L27.6-15.3Q39.2-15.3 42.1-21.3L42.1-21.3Q42.7-22.6 42.7-23.7L42.7-23.7Q42.7-25.9 40.7-27.5L40.7-27.5Q37.5-30.1 30.3-30.1 23.1-30.1 15.6-26.45L15.6-26.45Q6.5-22 6.5-16L6.5-16Q6.5-14.05 8.95-14.05 11.4-14.05 14.15-15.85 16.9-17.65 17.85-19.4L17.85-19.4Q18.2-20.05 18.53-20.05 18.85-20.05 18.7-19.65L18.7-19.65Q17.75-16.85 14.48-14.88 11.2-12.9 7.65-12.9 4.1-12.9 4.1-15.15L4.1-15.15Q4.1-15.3 4.1-15.5L4.1-15.5Q4.85-22.05 12.13-26.63 19.4-31.2 29.65-31.2L29.65-31.2Q39.2-31.2 43.2-27.9L43.2-27.9Q45.6-25.9 45.6-23.2L45.6-23.2Q45.6-22.05 45.05-20.7L45.05-20.7Q43.5-17.05 38.7-15.28 33.9-13.5 28.6-13.5Z" opacity="1" transform="matrix(1,0,0,1,0,0)" fill="#111111" class="wordmark-text-0" data-fill-palette-color="primary" id="text-0"></path></svg></g></svg></g></svg></g></svg></g><g transform="matrix(1,0,0,1,61.20013695652173,0)"><svg viewBox="0 0 198.0192913043478 121.69394397333016" height="121.69394397333016" width="198.0192913043478"><g><svg xmlns="http://www.w3.org/2000/svg" data-name="Layer 1" viewBox="2.430551295781235 20.791724898981606 95.13905147020833 58.4682751010184" x="0" y="0" height="121.69394397333016" width="198.0192913043478" class="icon-icon-0" data-fill-palette-color="accent" id="icon-0"><path d="M62.78 23L94.78 78.42 96.08 76.16H32.08L33.38 78.42 65.37 23A1.5 1.5 0 0 0 62.78 21.49L30.79 77A1.51 1.51 0 0 0 32.09 79.26H96.09A1.51 1.51 0 0 0 97.37 77L65.37 21.58A1.5 1.5 0 0 0 62.78 23" fill="#111111" data-fill-palette-color="accent"></path><path d="M34.63 23L66.63 78.42 67.93 76.16H3.93L5.23 78.42 37.22 23A1.5 1.5 0 0 0 34.63 21.49L2.63 77A1.51 1.51 0 0 0 3.93 79.26H67.93A1.51 1.51 0 0 0 69.21 77L37.21 21.58A1.5 1.5 0 0 0 34.63 23" fill="#111111" data-fill-palette-color="accent"></path></svg></g></svg></g><g></g></svg></g><defs></defs></svg><rect width="185.3887852635724" height="247.2" fill="none" stroke="none" visibility="hidden"></rect></g></svg></g></svg>